<svg width="16" height="16" viewBox="0 0 16 16" fill="none" xmlns="http://www.w3.org/2000/svg">
<path d="M10.62 7.63804L5.04705 2.32804C4.95406 2.23939 4.83052 2.18994 4.70205 2.18994C4.57358 2.18994 4.45003 2.23939 4.35705 2.32804L4.35105 2.33404C4.30581 2.37701 4.26979 2.42874 4.24518 2.48607C4.22056 2.5434 4.20787 2.60514 4.20787 2.66754C4.20787 2.72993 4.22056 2.79167 4.24518 2.849C4.26979 2.90634 4.30581 2.95806 4.35105 3.00104L9.59905 8.00104L4.35105 12.999C4.30581 13.042 4.26979 13.0937 4.24518 13.1511C4.22056 13.2084 4.20787 13.2701 4.20787 13.3325C4.20787 13.3949 4.22056 13.4567 4.24518 13.514C4.26979 13.5713 4.30581 13.6231 4.35105 13.666L4.35705 13.672C4.45003 13.7607 4.57357 13.8101 4.70205 13.8101C4.83052 13.8101 4.95406 13.7607 5.04705 13.672L10.62 8.36204C10.6691 8.31534 10.7081 8.25917 10.7347 8.19695C10.7614 8.13472 10.7751 8.06773 10.7751 8.00004C10.7751 7.93234 10.7614 7.86535 10.7347 7.80312C10.7081 7.7409 10.6691 7.68473 10.62 7.63804Z" fill="white"/>
</svg>
