<svg width="16" height="16" viewBox="0 0 16 16" fill="none" xmlns="http://www.w3.org/2000/svg">
<path d="M7.63804 5.3802L2.32804 10.9532C2.23939 11.0462 2.18994 11.1697 2.18994 11.2982C2.18994 11.4267 2.23939 11.5502 2.32804 11.6432L2.33404 11.6492C2.37701 11.6944 2.42874 11.7305 2.48607 11.7551C2.5434 11.7797 2.60514 11.7924 2.66754 11.7924C2.72993 11.7924 2.79167 11.7797 2.849 11.7551C2.90634 11.7305 2.95806 11.6944 3.00104 11.6492L8.00104 6.4012L12.999 11.6492C13.042 11.6944 13.0937 11.7305 13.1511 11.7551C13.2084 11.7797 13.2701 11.7924 13.3325 11.7924C13.3949 11.7924 13.4567 11.7797 13.514 11.7551C13.5713 11.7305 13.6231 11.6944 13.666 11.6492L13.672 11.6432C13.7607 11.5502 13.8101 11.4267 13.8101 11.2982C13.8101 11.1697 13.7607 11.0462 13.672 10.9532L8.36204 5.3802C8.31534 5.33119 8.25917 5.29217 8.19695 5.26551C8.13472 5.23885 8.06773 5.2251 8.00004 5.2251C7.93234 5.2251 7.86535 5.23885 7.80312 5.26551C7.7409 5.29217 7.68473 5.33119 7.63804 5.3802Z" fill="#333333"/>
</svg>
