<svg xmlns="http://www.w3.org/2000/svg" width="16" height="16" fill="none" viewBox="0 0 16 16"><path fill="#fff" d="M6.77.235a3.347 3.347 0 0 1 2.46 0l5.672 2.237c.323.128.601.353.797.646.196.293.301.64.301.996v7.77c0 .356-.105.704-.3.997a1.724 1.724 0 0 1-.798.646L9.23 15.766a3.347 3.347 0 0 1-2.462 0l-5.67-2.24a1.723 1.723 0 0 1-.798-.645 1.791 1.791 0 0 1-.3-.996V4.114c0-.356.105-.703.301-.996.197-.293.475-.518.798-.646L6.77.235zm2.05 1.094a2.231 2.231 0 0 0-1.64 0l-1.582.625 6.388 2.481 2.227-.978L8.82 1.33zm6.037 3.12L8.571 7.214v7.538c.085-.022.167-.049.25-.082l5.67-2.237a.573.573 0 0 0 .266-.216.596.596 0 0 0 .1-.332V4.448zM7.43 14.751V7.215L1.143 4.449v7.436c0 .118.035.234.1.332a.575.575 0 0 0 .266.215l5.67 2.238c.083.033.165.06.25.082zM1.787 3.457L8 6.19l2.473-1.088-6.476-2.517-2.21.872z"/></svg>