<svg width="16" height="16" viewBox="0 0 16 16" fill="none" xmlns="http://www.w3.org/2000/svg">
<path d="M10.6203 7.63801L5.04729 2.32801C4.9543 2.23936 4.83076 2.18991 4.70229 2.18991C4.57382 2.18991 4.45028 2.23936 4.35729 2.32801L4.35129 2.33401C4.30606 2.37698 4.27004 2.42871 4.24542 2.48604C4.22081 2.54337 4.20812 2.60511 4.20812 2.66751C4.20812 2.7299 4.22081 2.79164 4.24542 2.84897C4.27004 2.90631 4.30606 2.95803 4.35129 3.00101L9.59929 8.00101L4.35129 12.999C4.30605 13.042 4.27003 13.0937 4.24542 13.151C4.22081 13.2084 4.20811 13.2701 4.20811 13.3325C4.20811 13.3949 4.22081 13.4566 4.24542 13.514C4.27003 13.5713 4.30605 13.623 4.35129 13.666L4.35729 13.672C4.45028 13.7606 4.57382 13.8101 4.70229 13.8101C4.83076 13.8101 4.9543 13.7606 5.04729 13.672L10.6203 8.36201C10.6693 8.31531 10.7083 8.25914 10.735 8.19692C10.7616 8.13469 10.7754 8.0677 10.7754 8.00001C10.7754 7.93231 10.7616 7.86532 10.735 7.80309C10.7083 7.74087 10.6693 7.6847 10.6203 7.63801Z" fill="#333333"/>
</svg>
