<svg xmlns="http://www.w3.org/2000/svg" width="16" height="16" fill="none" viewBox="0 0 16 16"><path fill="#fff" d="M10.97 1.6c.663 0 1.295.176 1.831.528a3.49 3.49 0 0 1 1.6 2.543 3.494 3.494 0 0 1-1 2.775 3.412 3.412 0 0 1-2.056.984c-1.527.16-2.871.768-3.871 1.784a.647.647 0 0 1-.904 0l-.792-.792a.594.594 0 0 1-.176-.424c0-.2.088-.376.256-.544.968-.976 1.56-2.271 1.704-3.759.104-1.064.672-1.976 1.6-2.575a3.291 3.291 0 0 1 1.807-.52zm0-1.6c-.937 0-1.872.256-2.68.776-1.408.904-2.184 2.311-2.32 3.767-.104 1.056-.504 2.04-1.24 2.775l-.023.024c-.928.928-.928 2.344-.056 3.208l.791.791c.44.44 1.008.656 1.576.656.568 0 1.144-.216 1.584-.655.776-.776 1.8-1.2 2.911-1.32A5.016 5.016 0 0 0 13.673.8a4.88 4.88 0 0 0-2.704-.8zM3.41 14.285c.217.448.145.992-.231 1.36a1.192 1.192 0 0 1-2.04-.784 1.192 1.192 0 0 1-.784-2.04 1.19 1.19 0 0 1 1.36-.232L3.7 10.646c.112.152.24.328.384.472l.792.791c.168.16.327.296.535.416l-2 1.96z"/></svg>