<svg width="32" height="32" viewBox="0 0 32 32" fill="none" xmlns="http://www.w3.org/2000/svg">
<path d="M26.6667 23.3332C27.1803 23.3334 27.6742 23.5313 28.0459 23.8857C28.4176 24.2402 28.6387 24.724 28.6634 25.2371C28.6881 25.7501 28.5145 26.2529 28.1785 26.6414C27.8425 27.0299 27.3699 27.2743 26.8587 27.3238L26.6667 27.3332H5.33337C4.81975 27.3329 4.32591 27.1351 3.95419 26.7806C3.58247 26.4262 3.36136 25.9423 3.33668 25.4293C3.31199 24.9163 3.48563 24.4134 3.82161 24.0249C4.15759 23.6364 4.63015 23.3921 5.14137 23.3425L5.33337 23.3332H26.6667ZM26.6667 13.9998C27.1971 13.9998 27.7058 14.2106 28.0809 14.5856C28.456 14.9607 28.6667 15.4694 28.6667 15.9998C28.6667 16.5303 28.456 17.039 28.0809 17.4141C27.7058 17.7891 27.1971 17.9998 26.6667 17.9998H5.33337C4.80294 17.9998 4.29423 17.7891 3.91916 17.4141C3.54409 17.039 3.33337 16.5303 3.33337 15.9998C3.33337 15.4694 3.54409 14.9607 3.91916 14.5856C4.29423 14.2106 4.80294 13.9998 5.33337 13.9998H26.6667ZM26.6667 4.6665C27.1971 4.6665 27.7058 4.87722 28.0809 5.25229C28.456 5.62736 28.6667 6.13607 28.6667 6.6665C28.6667 7.19694 28.456 7.70564 28.0809 8.08072C27.7058 8.45579 27.1971 8.6665 26.6667 8.6665H5.33337C4.80294 8.6665 4.29423 8.45579 3.91916 8.08072C3.54409 7.70564 3.33337 7.19694 3.33337 6.6665C3.33337 6.13607 3.54409 5.62736 3.91916 5.25229C4.29423 4.87722 4.80294 4.6665 5.33337 4.6665H26.6667Z" fill="#333333"/>
</svg>
