<svg xmlns="http://www.w3.org/2000/svg" width="25" height="24" fill="none" viewBox="0 0 25 24"><path fill="#8ABB2A" d="M10.71 10.534l1.61-1.476a3 3 0 0 0 .78-3.263l-.687-1.836A2.873 2.873 0 0 0 8.88 2.22c-2.573.787-4.55 3.18-3.942 6.021a22.916 22.916 0 0 0 2.619 6.712 23.846 23.846 0 0 0 4.54 5.647c2.153 1.96 5.228 1.47 7.207-.375a2.85 2.85 0 0 0 .256-3.894L18.3 14.8a3 3 0 0 0-3.218-.956L13 14.501c-.08-.083-.172-.181-.274-.294a9.37 9.37 0 0 1-1.13-1.54 9.372 9.372 0 0 1-.769-1.75 9.662 9.662 0 0 1-.117-.383z"/></svg>