<svg width="16" height="17" viewBox="0 0 16 17" fill="none" xmlns="http://www.w3.org/2000/svg">
<path d="M7.6395 5.88L2.3295 11.453C2.24086 11.546 2.19141 11.6695 2.19141 11.798C2.19141 11.9265 2.24086 12.05 2.3295 12.143L2.3355 12.149C2.37847 12.1942 2.4302 12.2303 2.48753 12.2549C2.54487 12.2795 2.60661 12.2922 2.669 12.2922C2.73139 12.2922 2.79314 12.2795 2.85047 12.2549C2.9078 12.2303 2.95953 12.1942 3.0025 12.149L8.0025 6.901L13.0005 12.149C13.0435 12.1942 13.0952 12.2303 13.1525 12.2549C13.2099 12.2795 13.2716 12.2922 13.334 12.2922C13.3964 12.2922 13.4581 12.2795 13.5155 12.2549C13.5728 12.2303 13.6245 12.1942 13.6675 12.149L13.6735 12.143C13.7621 12.05 13.8116 11.9265 13.8116 11.798C13.8116 11.6695 13.7621 11.546 13.6735 11.453L8.3635 5.88C8.3168 5.83099 8.26064 5.79197 8.19841 5.76531C8.13619 5.73865 8.0692 5.7249 8.0015 5.7249C7.9338 5.7249 7.86681 5.73865 7.80459 5.76531C7.74236 5.79197 7.6862 5.83099 7.6395 5.88Z" fill="#333333"/>
</svg>
