<svg width="16" height="17" viewBox="0 0 16 17" fill="none" xmlns="http://www.w3.org/2000/svg">
<path d="M8.3605 11.12L13.6705 5.54698C13.7591 5.454 13.8086 5.33046 13.8086 5.20198C13.8086 5.07351 13.7591 4.94997 13.6705 4.85699L13.6645 4.85099C13.6215 4.80575 13.5698 4.76973 13.5125 4.74512C13.4551 4.7205 13.3934 4.70781 13.331 4.70781C13.2686 4.70781 13.2069 4.7205 13.1495 4.74512C13.0922 4.76973 13.0405 4.80575 12.9975 4.85098L7.9975 10.099L2.9995 4.85098C2.95653 4.80575 2.9048 4.76973 2.84747 4.74512C2.79014 4.7205 2.72839 4.70781 2.666 4.70781C2.60361 4.70781 2.54187 4.7205 2.48453 4.74512C2.4272 4.76973 2.37547 4.80575 2.3325 4.85098L2.3265 4.85698C2.23786 4.94997 2.1884 5.07351 2.1884 5.20198C2.1884 5.33045 2.23786 5.454 2.3265 5.54698L7.6365 11.12C7.6832 11.169 7.73936 11.208 7.80159 11.2347C7.86381 11.2613 7.9308 11.2751 7.9985 11.2751C8.0662 11.2751 8.13319 11.2613 8.19541 11.2347C8.25764 11.208 8.3138 11.169 8.3605 11.12Z" fill="#333333"/>
</svg>
