<svg width="16" height="16" viewBox="0 0 16 16" fill="none" xmlns="http://www.w3.org/2000/svg">
<path d="M1.99463 7.71717C1.99463 6.62917 2.26663 5.62117 2.8053 4.69851C3.34396 3.77584 4.07463 3.04517 4.9973 2.50651C5.91996 1.96784 6.92263 1.70117 8.0053 1.70117C8.81596 1.70117 9.59463 1.86117 10.336 2.17584C11.0773 2.49051 11.712 2.92251 12.2506 3.45584C12.7893 3.98917 13.216 4.62917 13.5306 5.37584C13.8453 6.12251 14.0053 6.89584 14.0053 7.71717C14.0053 8.52784 13.8453 9.30651 13.5306 10.0478C13.216 10.7892 12.784 11.4292 12.2506 11.9625C11.7173 12.4958 11.0773 12.9225 10.336 13.2372C9.59463 13.5518 8.8213 13.7118 8.0053 13.7118C7.1893 13.7118 6.4053 13.5518 5.66396 13.2372C4.92263 12.9225 4.28263 12.4905 3.74396 11.9572C3.2053 11.4238 2.78396 10.7838 2.46396 10.0478C2.14396 9.31184 1.99463 8.53317 1.99463 7.71717ZM3.3173 7.71717C3.3173 8.98117 3.77596 10.0798 4.69863 11.0132C5.6213 11.9358 6.71996 12.3945 8.0053 12.3945C8.84796 12.3945 9.63196 12.1865 10.3466 11.7652C11.0613 11.3438 11.6373 10.7785 12.0586 10.0585C12.48 9.33851 12.6933 8.55984 12.6933 7.71717C12.6933 6.87451 12.48 6.09051 12.0586 5.37051C11.6373 4.65051 11.0666 4.07984 10.3466 3.65851C9.62663 3.23717 8.84796 3.02917 8.0053 3.02917C7.16263 3.02917 6.37863 3.23717 5.66396 3.65851C4.9493 4.07984 4.3733 4.65051 3.94663 5.37051C3.51996 6.09051 3.3173 6.87451 3.3173 7.71717ZM7.5413 7.71717V4.16517C7.5413 4.04251 7.58396 3.93584 7.6693 3.85051C7.75463 3.76517 7.8613 3.72251 7.98396 3.72251C8.10663 3.72251 8.2133 3.76517 8.29863 3.85051C8.38396 3.93584 8.42663 4.04251 8.42663 4.16517V7.26917H10.4426C10.5653 7.26917 10.672 7.31184 10.7573 7.39717C10.8426 7.48251 10.8853 7.58917 10.8853 7.71184C10.8853 7.82917 10.8426 7.93584 10.7573 8.02651C10.672 8.11717 10.5653 8.15984 10.4426 8.15984H8.07463C8.05863 8.16517 8.02663 8.16517 7.97863 8.16517C7.91999 8.16624 7.86176 8.15531 7.80751 8.13303C7.75326 8.11076 7.70414 8.07762 7.66317 8.03566C7.62221 7.99369 7.59026 7.94379 7.5693 7.88902C7.54834 7.83424 7.53881 7.77576 7.5413 7.71717Z" fill="white"/>
</svg>
