<svg width="25" height="24" viewBox="0 0 25 24" fill="none" xmlns="http://www.w3.org/2000/svg">
<path d="M10.7097 10.5337L12.3192 9.05775C12.7596 8.65367 13.0693 8.12723 13.2086 7.54594C13.3478 6.96466 13.3102 6.35503 13.1007 5.79525L12.4129 3.95925C12.1565 3.27398 11.6483 2.71237 10.992 2.38902C10.3357 2.06566 9.58072 2.00494 8.88115 2.21925C6.30715 3.00675 4.32865 5.39925 4.93765 8.241C5.33815 10.11 6.1039 12.456 7.55665 14.9527C8.77389 17.0556 10.3053 18.9601 12.0979 20.6002C14.2504 22.5592 17.3254 22.0695 19.3039 20.2252C19.8339 19.7306 20.1555 19.0525 20.2032 18.329C20.2508 17.6056 20.021 16.8912 19.5604 16.3312L18.2997 14.7997C17.9197 14.3379 17.4103 14.0002 16.837 13.8299C16.2637 13.6597 15.6526 13.6647 15.0822 13.8442L13.0002 14.5005C12.9197 14.418 12.8282 14.32 12.7257 14.2065C12.2975 13.7331 11.9187 13.2171 11.5954 12.6667C11.2805 12.1114 11.0232 11.5254 10.8274 10.9177C10.7855 10.7906 10.7463 10.6625 10.7097 10.5337Z" fill="#8ABB2A"/>
</svg>
