<svg width="25" height="24" viewBox="0 0 25 24" fill="none" xmlns="http://www.w3.org/2000/svg">
<path d="M22.7595 11.8358L13.1056 2.18895C13.0361 2.1193 12.9535 2.06404 12.8626 2.02634C12.7717 1.98864 12.6743 1.96924 12.5759 1.96924C12.4775 1.96924 12.38 1.98864 12.2892 2.02634C12.1983 2.06404 12.1157 2.1193 12.0462 2.18895L2.39229 11.8358C2.11104 12.1171 1.95166 12.4991 1.95166 12.8975C1.95166 13.7249 2.62432 14.3975 3.45166 14.3975H4.46885V21.2811C4.46885 21.696 4.804 22.0311 5.21885 22.0311H11.0759V16.7811H13.7009V22.0311H19.9329C20.3478 22.0311 20.6829 21.696 20.6829 21.2811V14.3975H21.7001C22.0985 14.3975 22.4806 14.2405 22.7618 13.9569C23.3454 13.371 23.3454 12.4218 22.7595 11.8358Z" fill="#666666"/>
</svg>
