<svg width="25" height="24" viewBox="0 0 25 24" fill="none" xmlns="http://www.w3.org/2000/svg">
<path d="M20.5757 17.5C20.9609 17.5002 21.3313 17.6486 21.6101 17.9144C21.8889 18.1802 22.0547 18.5431 22.0732 18.9279C22.0917 19.3127 21.9615 19.6898 21.7095 19.9812C21.4575 20.2726 21.1031 20.4558 20.7197 20.493L20.5757 20.5H4.57568C4.19047 20.4998 3.82009 20.3514 3.5413 20.0856C3.26251 19.8198 3.09667 19.4569 3.07816 19.0721C3.05965 18.6873 3.18988 18.3102 3.44186 18.0188C3.69384 17.7274 4.04826 17.5442 4.43168 17.507L4.57568 17.5H20.5757ZM20.5757 10.5C20.9735 10.5 21.355 10.658 21.6363 10.9393C21.9176 11.2206 22.0757 11.6022 22.0757 12C22.0757 12.3978 21.9176 12.7794 21.6363 13.0607C21.355 13.342 20.9735 13.5 20.5757 13.5H4.57568C4.17786 13.5 3.79633 13.342 3.51502 13.0607C3.23372 12.7794 3.07568 12.3978 3.07568 12C3.07568 11.6022 3.23372 11.2206 3.51502 10.9393C3.79633 10.658 4.17786 10.5 4.57568 10.5H20.5757ZM20.5757 3.5C20.9735 3.5 21.355 3.65804 21.6363 3.93934C21.9176 4.22064 22.0757 4.60218 22.0757 5C22.0757 5.39782 21.9176 5.77936 21.6363 6.06066C21.355 6.34196 20.9735 6.5 20.5757 6.5H4.57568C4.17786 6.5 3.79633 6.34196 3.51502 6.06066C3.23372 5.77936 3.07568 5.39782 3.07568 5C3.07568 4.60218 3.23372 4.22064 3.51502 3.93934C3.79633 3.65804 4.17786 3.5 4.57568 3.5H20.5757Z" fill="#666666"/>
</svg>
