<svg width="25" height="24" viewBox="0 0 25 24" fill="none" xmlns="http://www.w3.org/2000/svg">
<path d="M22.0624 19.9687C20.5802 17.4075 18.2533 15.6103 15.5496 14.8481C16.8641 14.1799 17.9152 13.0885 18.5336 11.7498C19.1519 10.411 19.3013 8.90311 18.9577 7.4691C18.6142 6.03508 17.7977 4.75856 16.6399 3.84537C15.482 2.93218 14.0504 2.43555 12.5758 2.43555C11.1012 2.43555 9.6696 2.93218 8.5118 3.84537C7.35399 4.75856 6.53748 6.03508 6.19392 7.4691C5.85036 8.90311 5.99979 10.411 6.6181 11.7498C7.23641 13.0885 8.28756 14.1799 9.60207 14.8481C6.89832 15.6094 4.57145 17.4065 3.08926 19.9687C3.04856 20.0328 3.02124 20.1043 3.00892 20.1792C2.99661 20.2541 2.99957 20.3306 3.01762 20.4043C3.03566 20.478 3.06843 20.5473 3.11395 20.608C3.15946 20.6687 3.21678 20.7195 3.28246 20.7575C3.34815 20.7955 3.42083 20.8197 3.49614 20.8289C3.57145 20.838 3.64783 20.8319 3.72069 20.8107C3.79355 20.7896 3.86138 20.7539 3.9201 20.7059C3.97882 20.6579 4.02722 20.5985 4.06239 20.5312C5.86332 17.4197 9.0452 15.5625 12.5758 15.5625C16.1064 15.5625 19.2883 17.4197 21.0893 20.5312C21.1244 20.5985 21.1728 20.6579 21.2315 20.7059C21.2903 20.7539 21.3581 20.7896 21.431 20.8107C21.5038 20.8319 21.5802 20.838 21.6555 20.8289C21.7308 20.8197 21.8035 20.7955 21.8692 20.7575C21.9349 20.7195 21.9922 20.6687 22.0377 20.608C22.0832 20.5473 22.116 20.478 22.134 20.4043C22.1521 20.3306 22.155 20.2541 22.1427 20.1792C22.1304 20.1043 22.1031 20.0328 22.0624 19.9687ZM7.13832 8.99998C7.13832 7.92455 7.45723 6.87326 8.05471 5.97907C8.65219 5.08488 9.50141 4.38794 10.495 3.97639C11.4886 3.56484 12.5819 3.45716 13.6366 3.66696C14.6914 3.87677 15.6603 4.39464 16.4207 5.15509C17.1812 5.91554 17.699 6.88441 17.9088 7.93918C18.1187 8.99395 18.011 10.0873 17.5994 11.0808C17.1879 12.0744 16.4909 12.9236 15.5967 13.5211C14.7025 14.1186 13.6513 14.4375 12.5758 14.4375C11.1342 14.4357 9.7522 13.8623 8.73285 12.843C7.7135 11.8236 7.14006 10.4416 7.13832 8.99998Z" fill="#666666"/>
</svg>
