<svg width="16" height="16" viewBox="0 0 16 16" fill="none" xmlns="http://www.w3.org/2000/svg">
<path d="M8.36196 10.6198L13.672 5.0468C13.7606 4.95381 13.8101 4.83027 13.8101 4.7018C13.8101 4.57333 13.7606 4.44979 13.672 4.3568L13.666 4.3508C13.623 4.30557 13.5713 4.26955 13.5139 4.24493C13.4566 4.22032 13.3949 4.20763 13.3325 4.20763C13.2701 4.20763 13.2083 4.22032 13.151 4.24493C13.0937 4.26955 13.0419 4.30557 12.999 4.3508L7.99896 9.5988L3.00097 4.3508C2.95799 4.30557 2.90627 4.26955 2.84893 4.24493C2.7916 4.22032 2.72986 4.20763 2.66747 4.20763C2.60507 4.20763 2.54333 4.22032 2.486 4.24493C2.42867 4.26955 2.37694 4.30557 2.33397 4.3508L2.32796 4.3568C2.23932 4.44979 2.18987 4.57333 2.18987 4.7018C2.18987 4.83027 2.23932 4.95381 2.32796 5.0468L7.63796 10.6198C7.68466 10.6688 7.74083 10.7078 7.80305 10.7345C7.86528 10.7612 7.93227 10.7749 7.99996 10.7749C8.06766 10.7749 8.13465 10.7612 8.19688 10.7345C8.2591 10.7078 8.31527 10.6688 8.36196 10.6198Z" fill="#333333"/>
</svg>
