<svg xmlns="http://www.w3.org/2000/svg" width="16" height="16" fill="none" viewBox="0 0 16 16"><path fill="#fff" d="M4.61 0l.346 1.048c.216.651.509 2.28.441 3.047-.838.64-1.351 1.265-1.748 1.786-.484-.485-1.442-1.31-3.034-1.31H0v.762c0 1.459.425 2.643.577 3.048A8.504 8.504 0 0 0 0 11.429v.761h.615c1.58 0 2.55-.827 3.035-1.31a10.471 10.471 0 0 0 3.073 2.644 5.745 5.745 0 0 0 .057 1.905l.116.571h.48c.758 0 1.412-.467 1.94-.88.432-.34.64-.578.749-.692 2.444-.107 4.005-1.74 4.84-3.357.865-1.67 1.076-3.333 1.076-3.333l.019-.19-.057-.191s-1.408-4.792-5.225-5.024c-.405-.61-.973-1.115-1.767-1.524A7.548 7.548 0 0 0 5.531 0H4.61zm1.786 1.619c.776.107 1.501.301 2.075.595.785.402 1.332.98 1.46 1.238l.173.358h.345c3.07 0 4.175 3.603 4.264 3.904a8.486 8.486 0 0 1-.845 2.548c-.713 1.378-1.868 2.69-4.034 2.69h-.23l-.173.19s-.324.344-.768.691c-.234.182-.432.215-.673.334.025-.348 0-.857 0-.857l.135-.667-.5-.215c-1.522-.72-2.816-2.077-3.476-3.023l-.423-.62-.461.572s-.819.712-1.882 1.048c.159-.893.403-1.69.403-1.69l.135-.334-.135-.334s-.266-.874-.422-1.81c1.133.31 1.901 1.168 1.901 1.168l.461.571.423-.619c.55-.77 2.031-2.69 4.207-3.048l-.174-1.5c-.588.096-1.101.307-1.594.549-.03-.64-.057-1.191-.192-1.739zm5.59 5.238a.842.842 0 0 0-.652.335c-.173.214-.27.505-.27.808 0 .303.097.594.27.808a.842.842 0 0 0 .652.335c.244 0 .479-.12.652-.335.173-.214.27-.505.27-.808 0-.303-.097-.594-.27-.808a.842.842 0 0 0-.652-.335z"/></svg>