<svg xmlns="http://www.w3.org/2000/svg" width="16" height="16" fill="none" viewBox="0 0 16 16"><path fill="#fff" d="M8 16a7.843 7.843 0 0 1-4.9-1.675L1.7 15.7a.948.948 0 0 1-.7.275.948.948 0 0 1-.7-.275.948.948 0 0 1-.275-.7.95.95 0 0 1 .275-.7l1.375-1.375A7.917 7.917 0 0 1 0 8c0-2.233.775-4.125 2.325-5.675C3.875.775 5.767 0 8 0h8v8c0 2.233-.775 4.125-2.325 5.675C12.125 15.225 10.233 16 8 16zm0-2c1.667 0 3.083-.583 4.25-1.75C13.417 11.083 14 9.667 14 8V2H8c-1.667 0-3.083.583-4.25 1.75C2.583 4.917 2 6.333 2 8c0 .65.1 1.27.3 1.862.2.592.475 1.13.825 1.613L8.3 6.3a.948.948 0 0 1 .7-.275.95.95 0 0 1 .7.275c.2.2.3.437.3.712 0 .275-.1.513-.3.713L4.525 12.9c.483.35 1.02.62 1.612.812A6 6 0 0 0 8 14z"/></svg>