<svg width="24" height="24" viewBox="0 0 24 24" fill="none" xmlns="http://www.w3.org/2000/svg">
<path d="M8.07005 12.5432L16.4296 20.5082C16.569 20.6412 16.7543 20.7153 16.9471 20.7153C17.1398 20.7153 17.3251 20.6412 17.4646 20.5082L17.4736 20.4992C17.5414 20.4347 17.5954 20.3571 17.6324 20.2711C17.6693 20.1851 17.6883 20.0925 17.6883 19.9989C17.6883 19.9053 17.6693 19.8127 17.6324 19.7267C17.5954 19.6407 17.5414 19.5631 17.4736 19.4987L9.60155 11.9987L17.4736 4.50169C17.5414 4.43723 17.5954 4.35964 17.6324 4.27364C17.6693 4.18764 17.6883 4.09503 17.6883 4.00144C17.6883 3.90785 17.6693 3.81524 17.6324 3.72924C17.5954 3.64324 17.5414 3.56565 17.4736 3.50119L17.4646 3.49219C17.3251 3.35922 17.1398 3.28505 16.9471 3.28505C16.7543 3.28505 16.569 3.35922 16.4296 3.49219L8.07005 11.4572C7.99653 11.5272 7.93801 11.6115 7.89801 11.7048C7.85802 11.7982 7.8374 11.8986 7.8374 12.0002C7.8374 12.1017 7.85802 12.2022 7.89801 12.2956C7.93801 12.3889 7.99653 12.4731 8.07005 12.5432Z" fill="#333333"/>
</svg>
